# xmcd CD database file
#
# Track frame offsets:
#	150
#	18525
#	36900
#	55650
#
# Disc length: 1014 seconds
#
# Revision: 1
# Processed by: cddbd v1.5.1PL2 Copyright (c) Steve Scherf et al.
# Submitted via: freeDBTagger 0.8.2.1
#
DISCID=2b03f404
DTITLE=SPITZ - ハッピーディ - Indy [Casset]
DYEAR=1989
DGENRE=rock
TTITLE0=僕はジェット
TTITLE1=晴れの日はプカプカプー
TTITLE2=クモ少年が走る
TTITLE3=ハッピーデイ
EXTD=
EXTT0=
EXTT1=
EXTT2=
EXTT3=
PLAYORDER=
